<svg xmlns="http://www.w3.org/2000/svg" fill="currentColor" viewBox="0 0 100 100"><path d="M48 70h4v25h-4z"/><rect width="30" height="4" x="35" y="92" rx="2"/><path d="M49 15h2v55h-2z"/><path d="M20 18h60v2H20z"/><path stroke="currentColor" d="M30 20v15M28 20v15M32 20v15M70 20v15M68 20v15M72 20v15"/><ellipse cx="30" cy="38" rx="12" ry="3"/><path fill="none" stroke="currentColor" d="M18 38q0 2 2 3h20q2-1 2-3"/><ellipse cx="70" cy="42" rx="12" ry="3"/><path fill="none" stroke="currentColor" d="M58 42q0 2 2 3h20q2-1 2-3"/><circle cx="30" cy="36" r="1" opacity=".7"/><circle cx="26" cy="37" r=".8" opacity=".7"/><circle cx="34" cy="37" r=".8" opacity=".7"/><circle cx="70" cy="40" r="1" opacity=".7"/><circle cx="66" cy="41" r=".8" opacity=".7"/><circle cx="74" cy="41" r=".8" opacity=".7"/></svg>